<mxfile host="app.diagrams.net" modified="2020-09-05T12:43:10.740Z" agent="5.0 (Macintosh; Intel Mac OS X 10_15_6) AppleWebKit/537.36 (KHTML, like Gecko) Chrome/85.0.4183.83 Safari/537.36" etag="JxKetplyVJN3p6PSZ62d" version="13.6.6" type="github">
  <diagram id="0IfLsRaYGOmzFFGeKBLH" name="Page-1">
    <mxGraphModel dx="1426" dy="629" grid="1" gridSize="10" guides="1" tooltips="1" connect="1" arrows="1" fold="1" page="1" pageScale="1" pageWidth="850" pageHeight="1100" math="0" shadow="0">
      <root>
        <mxCell id="0" />
        <mxCell id="1" parent="0" />
        <mxCell id="dH3xELb1jTJIaeYPLYse-6" style="edgeStyle=orthogonalEdgeStyle;rounded=0;orthogonalLoop=1;jettySize=auto;html=1;entryX=0.5;entryY=0;entryDx=0;entryDy=0;" edge="1" parent="1" source="dH3xELb1jTJIaeYPLYse-1" target="dH3xELb1jTJIaeYPLYse-4">
          <mxGeometry relative="1" as="geometry" />
        </mxCell>
        <mxCell id="dH3xELb1jTJIaeYPLYse-7" style="edgeStyle=orthogonalEdgeStyle;rounded=0;orthogonalLoop=1;jettySize=auto;html=1;entryX=0.5;entryY=0;entryDx=0;entryDy=0;" edge="1" parent="1" source="dH3xELb1jTJIaeYPLYse-1" target="dH3xELb1jTJIaeYPLYse-5">
          <mxGeometry relative="1" as="geometry" />
        </mxCell>
        <mxCell id="dH3xELb1jTJIaeYPLYse-1" value="Web Apps" style="rounded=1;whiteSpace=wrap;html=1;" vertex="1" parent="1">
          <mxGeometry x="350" y="80" width="120" height="60" as="geometry" />
        </mxCell>
        <mxCell id="dH3xELb1jTJIaeYPLYse-9" value="" style="edgeStyle=orthogonalEdgeStyle;rounded=0;orthogonalLoop=1;jettySize=auto;html=1;" edge="1" parent="1" source="dH3xELb1jTJIaeYPLYse-4" target="dH3xELb1jTJIaeYPLYse-8">
          <mxGeometry relative="1" as="geometry" />
        </mxCell>
        <mxCell id="dH3xELb1jTJIaeYPLYse-4" value="Frontend" style="rounded=1;whiteSpace=wrap;html=1;" vertex="1" parent="1">
          <mxGeometry x="160" y="170" width="120" height="60" as="geometry" />
        </mxCell>
        <mxCell id="dH3xELb1jTJIaeYPLYse-5" value="Backend" style="rounded=1;whiteSpace=wrap;html=1;" vertex="1" parent="1">
          <mxGeometry x="550" y="170" width="120" height="60" as="geometry" />
        </mxCell>
        <mxCell id="dH3xELb1jTJIaeYPLYse-11" value="" style="edgeStyle=orthogonalEdgeStyle;rounded=0;orthogonalLoop=1;jettySize=auto;html=1;" edge="1" parent="1" source="dH3xELb1jTJIaeYPLYse-8" target="dH3xELb1jTJIaeYPLYse-10">
          <mxGeometry relative="1" as="geometry" />
        </mxCell>
        <mxCell id="dH3xELb1jTJIaeYPLYse-8" value="HTML, CSS, JS" style="whiteSpace=wrap;html=1;rounded=1;" vertex="1" parent="1">
          <mxGeometry x="160" y="310" width="120" height="60" as="geometry" />
        </mxCell>
        <mxCell id="dH3xELb1jTJIaeYPLYse-10" value="Angular, Ionic" style="whiteSpace=wrap;html=1;rounded=1;" vertex="1" parent="1">
          <mxGeometry x="160" y="450" width="120" height="60" as="geometry" />
        </mxCell>
      </root>
    </mxGraphModel>
  </diagram>
</mxfile>
